HIERARCHY
ROOT Hips
{
	OFFSET 0.00000 0.00000 0.00000
	CHANNELS 6 Xposition Yposition Zposition Yrotation Zrotation Xrotation 
	JOINT Lumbar
	{
		OFFSET 0 0 0
		CHANNELS 3 Zrotation Xrotation Yrotation
		JOINT Neck
		{
			OFFSET 0.00 0.2701 0.00
			CHANNELS 3 Zrotation Xrotation Yrotation
			End Site
			{
				OFFSET 0.00 0.1379 0.00
			}
		}
		JOINT RightShoulder
		{
			OFFSET 0.0119 0.2289 0.1181
			CHANNELS 3 Zrotation Xrotation Yrotation
			JOINT RightElbow
			{
				OFFSET 0.00 -0.1475 0.00
				CHANNELS 2 Zrotation Yrotation
				JOINT RightWrist
				{
					OFFSET 0.00 -0.1605 0.00
					CHANNELS 2 Zrotation Xrotation
					End Site
					{
						OFFSET 0.0040 -0.1068 0.0006
					}
				}
			}
		}
		JOINT LeftShoulder
		{
			OFFSET 0.0119 0.2289 -0.1181
			CHANNELS 3 Zrotation Xrotation Yrotation
			JOINT LeftElbow
			{
				OFFSET 0.00 -0.1475 0.00
				CHANNELS 2 Zrotation Yrotation
				JOINT LeftWrist
				{
					OFFSET 0.00 -0.1605 0.00
					CHANNELS 2 Zrotation Xrotation
					End Site
					{
						OFFSET 0.0040 -0.1068 -0.0006
					}
				}
			}
		}
	}
	JOINT RightHip
	{
		OFFSET 0.0316 -0.0424 0.0458
		CHANNELS 3 Zrotation Xrotation Yrotation
		JOINT RightKnee
		{
			OFFSET 0.00 -0.2438 0.00
			CHANNELS 1 Zrotation
			JOINT RightAnkle
			{
				OFFSET 0.00 -0.2449 0.00
				CHANNELS 3 Zrotation Xrotation Yrotation
				End Site
				{
					OFFSET 0.1237 -0.0542 0.0051
				}
			}
		}
	}
	JOINT LeftHip
	{
		OFFSET 0.0316 -0.0424 -0.0458
		CHANNELS 3 Zrotation Xrotation Yrotation
		JOINT LeftKnee
		{
			OFFSET 0.00 -0.2438 0.00
			CHANNELS 1 Zrotation
			JOINT LeftAnkle
			{
				OFFSET 0.00 -0.2449 0.00
				CHANNELS 3 Zrotation Xrotation Yrotation
				End Site
				{
					OFFSET 0.1237 -0.0542 -0.0051
				}
			}
		}
	}
}
MOTION
Frames: 25
Frame Time: 0.02
0 2e-05 -0.00022 -181.64172 -39.37496 -3.92231 47.32773 3.3717 -1.00576 -11.39731 -2.73666 -0.40139 35.07685 -105.58666 55.63413 8.98046 93.62639 5.88694 -3.31248 19.74294 105.69963 -55.63655 9.04556 -77.69425 3.86041 -0.24927 43.74619 -2.16093 -8.08318 -21.5149 -6.91499 -2.24094 -3.31263 47.6056 7.2432 3.54486 -26.80304 -7.00434 2.01824 3.25108
-8e-05 1e-05 -0.00013 -181.63465 -39.37231 -3.91948 47.32453 3.37284 -1.01882 -11.40427 -2.72405 -0.40214 35.26691 -105.5894 55.63412 8.97362 93.6354 5.83613 -3.28709 19.89678 105.68268 -55.63583 9.04827 -77.71717 3.84782 -0.27811 43.72953 -2.20119 -8.24566 -21.51816 -6.91247 -2.22097 -3.30455 47.58877 7.28664 3.77186 -26.80459 -7.00275 2.00059 3.23972
-0.00016 -0 -5e-05 -181.62758 -39.36968 -3.91665 47.32135 3.37397 -1.03186 -11.41126 -2.71147 -0.4029 35.45689 -105.59214 55.63412 8.96702 93.64431 5.78518 -3.26171 20.05065 105.66569 -55.6351 9.05108 -77.74004 3.83492 -0.30695 43.71292 -2.24135 -8.4077 -21.52141 -6.90996 -2.20105 -3.29649 47.57201 7.32991 3.99812 -26.80613 -7.00116 1.98299 3.22839
-0.00024 -1e-05 4e-05 -181.62053 -39.36705 -3.91382 47.31816 3.3751 -1.04489 -11.4182 -2.69889 -0.40366 35.64641 -105.59487 55.63412 8.9602 93.65332 5.73448 -3.2364 20.20402 105.64879 -55.63439 9.05378 -77.76273 3.82233 -0.33572 43.69631 -2.28149 -8.56969 -21.52466 -6.90745 -2.18114 -3.28844 47.55523 7.3732 4.22441 -26.80768 -6.99957 1.9654 3.21707
-0.00032 -2e-05 0.00012 -181.61348 -39.36439 -3.91099 47.31494 3.37624 -1.05792 -11.42512 -2.68631 -0.40441 35.83593 -105.5976 55.63412 8.95314 93.66234 5.68402 -3.21109 20.35739 105.63195 -55.63367 9.05638 -77.7859 3.81013 -0.36444 43.67966 -2.32172 -8.7321 -21.52793 -6.90493 -2.16118 -3.28036 47.5384 7.41666 4.45149 -26.80922 -6.99798 1.94776 3.20571
-0.0004 -3e-05 0.00021 -181.60639 -39.36183 -3.90817 47.31184 3.37737 -1.07101 -11.43225 -2.67371 -0.40517 36.02693 -105.6004 55.63412 8.94756 93.67098 5.63205 -3.18555 20.5124 105.61465 -55.63295 9.05966 -77.8084 3.79576 -0.39351 43.66315 -2.36172 -8.89334 -21.53115 -6.90242 -2.14135 -3.27234 47.52178 7.45953 4.67601 -26.81077 -6.99639 1.93024 3.19445
-0.00048 -4e-05 0.00029 -181.59938 -39.35907 -3.90533 47.3085 3.3785 -1.08396 -11.43892 -2.66115 -0.40592 36.21446 -105.60302 55.63412 8.9388 93.68062 5.5832 -3.16053 20.6634 105.59834 -55.63224 9.06145 -77.83105 3.78586 -0.42193 43.64635 -2.40214 -9.05676 -21.53445 -6.89991 -2.12129 -3.26422 47.50474 7.50354 4.90538 -26.81232 -6.9948 1.9125 3.183
-0.00056 -5e-05 0.00037 -181.59231 -39.3565 -3.90251 47.30539 3.37964 -1.09703 -11.44606 -2.64855 -0.40668 36.40567 -105.60587 55.63412 8.93332 93.68888 5.53141 -3.135 20.81905 105.58101 -55.63148 9.06484 -77.85571 3.77168 -0.45079 43.62983 -2.44218 -9.21818 -21.53768 -6.8974 -2.10144 -3.25619 47.48809 7.54651 5.13037 -26.81386 -6.99321 1.89496 3.17173
-0.00063 -6e-05 0.00046 -181.58511 -39.35415 -3.89972 47.30252 3.38077 -1.11029 -11.45362 -2.63593 -0.40743 36.59966 -105.60873 55.63411 8.9305 93.69728 5.47619 -3.10895 20.97678 105.56284 -55.63081 9.06929 -77.87429 3.75284 -0.48084 43.61361 -2.48173 -9.37718 -21.54082 -6.89488 -2.08181 -3.24828 47.47192 7.58817 5.3497 -26.8154 -6.99162 1.87769 3.16068
-0.00072 -7e-05 0.00054 -181.57849 -39.35049 -3.89676 47.29817 3.38187 -1.12258 -11.4583 -2.6235 -0.4082 36.77251 -105.61074 55.63414 8.90836 93.71037 5.44121 -3.08619 21.11171 105.55073 -55.6301 9.06498 -77.90221 3.76252 -0.506 43.59556 -2.52404 -9.55019 -21.54446 -6.89237 -2.06084 -3.23969 47.45299 7.63724 5.6007 -26.81698 -6.99004 1.85895 3.14836
-0.00079 -8e-05 0.00063 -181.57074 -39.34962 -3.89413 47.297 3.38309 -1.13683 -11.46932 -2.61065 -0.40894 36.99319 -105.61502 55.6341 8.92949 93.71005 5.36325 -3.05633 21.30161 105.52508 -55.62919 9.08081 -77.92677 3.71096 -0.54023 43.58143 -2.56058 -9.69358 -21.54708 -6.88985 -2.04272 -3.23254 47.43988 7.67077 5.78546 -26.81847 -6.98843 1.84327 3.13871
-0.00084 -8e-05 0.00071 -181.559 -39.35638 -3.89261 47.30421 3.38432 -1.1574 -11.49584 -2.59686 -0.40951 37.32279 -105.62193 55.63385 9.05193 93.70125 5.16815 -3.00787 21.59303 105.46771 -55.63029 9.13962 -77.80322 3.49946 -0.61024 43.57757 -2.58075 -9.75547 -21.54655 -6.88731 -2.03231 -3.22935 47.44293 7.66052 5.78194 -26.81964 -6.98672 1.83627 3.13659
-0.00088 -8e-05 0.00079 -181.54626 -39.36597 -3.89135 47.3147 3.38572 -1.17978 -11.52918 -2.58261 -0.41007 37.7064 -105.63191 55.63354 9.22226 93.67362 4.92967 -2.95211 21.95248 105.39558 -55.63083 9.22147 -77.69867 3.22578 -0.68758 43.57773 -2.59527 -9.7877 -21.54507 -6.88474 -2.02478 -3.22759 47.45181 7.63489 5.7132 -26.82074 -6.98496 1.83229 3.1371
-0.00092 -8e-05 0.00088 -181.53457 -39.3743 -3.88984 47.32387 3.38725 -1.20065 -11.56045 -2.56845 -0.4107 38.07754 -105.64269 55.63327 9.38055 93.6363 4.71057 -2.89915 22.30831 105.32686 -55.62987 9.30014 -77.68041 2.97419 -0.75419 43.57635 -2.61269 -9.8336 -21.54426 -6.88218 -2.01602 -3.22515 47.4579 7.61704 5.67842 -26.82191 -6.98321 1.82674 3.13628
-0.00096 -9e-05 0.00096 -181.52043 -39.3825 -3.88894 47.33221 3.38796 -1.22428 -11.58689 -2.55481 -0.41104 38.39025 -105.64368 55.63294 9.49297 93.67648 4.49306 -2.84843 22.53388 105.2727 -55.63592 9.34588 -77.27532 2.74512 -0.85115 43.57378 -2.62857 -9.87845 -21.54243 -6.87964 -2.00696 -3.22285 47.46454 7.59578 5.62485 -26.8229 -6.98152 1.82205 3.13607
-0.00101 -9e-05 0.00105 -181.51109 -39.39166 -3.88675 47.34323 3.39037 -1.24281 -11.62562 -2.53997 -0.41197 38.84696 -105.66644 55.63273 9.71843 93.55012 4.26162 -2.79123 23.06588 105.18391 -55.62773 9.4684 -77.66307 2.45866 -0.88777 43.57465 -2.64646 -9.91869 -21.54251 -6.87704 -1.99916 -3.22058 47.47148 7.57803 5.5955 -26.82429 -6.97971 1.81625 3.13517
-0.00104 -9e-05 0.00115 -181.51579 -39.40254 -3.88164 47.35931 3.39766 -1.24508 -11.69162 -2.52191 -0.41453 39.60978 -105.74211 55.6329 10.19199 92.97454 4.00934 -2.71935 24.26835 105.00915 -55.57604 9.77154 -80.38321 1.99615 -0.74556 43.5839 -2.67014 -9.95149 -21.548 -6.87446 -1.99454 -3.21826 47.47738 7.57328 5.64407 -26.82646 -6.9775 1.80716 3.13204
-0.00108 -9e-05 0.00127 -181.52524 -39.41435 -3.87509 47.37833 3.40658 -1.24252 -11.7708 -2.50265 -0.41767 40.53223 -105.84019 55.63319 10.78759 92.23134 3.74608 -2.6414 25.80884 104.79839 -55.51082 10.15428 -83.8718 1.4865 -0.54382 43.59654 -2.69626 -9.98102 -21.55548 -6.87179 -1.99102 -3.2159 47.4835 7.57262 5.71988 -26.82911 -6.97518 1.7968 3.12808
-0.00111 -9e-05 0.00139 -181.53214 -39.42585 -3.86876 47.39694 3.41466 -1.24324 -11.84707 -2.48394 -0.42054 41.43044 -105.93297 55.6334 11.36137 91.56031 3.47967 -2.56475 27.29593 104.60086 -55.45465 10.51955 -86.91325 1.017 -0.3768 43.60769 -2.72202 -10.01339 -21.56207 -6.86906 -1.98677 -3.21344 47.48978 7.57053 5.78688 -26.83179 -6.97294 1.78668 3.12429
-0.00115 -9e-05 0.0015 -181.54068 -39.4369 -3.86433 47.41151 3.42333 -1.23927 -11.91007 -2.46519 -0.42344 42.11852 -106.00765 55.63373 11.79405 90.90361 3.2345 -2.49218 28.35287 104.41827 -55.38631 10.81348 -90.37377 0.45671 -0.17975 43.61864 -2.7444 -10.03912 -21.56848 -6.86674 -1.98361 -3.21154 47.49506 7.56644 5.8379 -26.83344 -6.97057 1.77799 3.12143
-0.00118 -9e-05 0.00162 -181.54692 -39.44915 -3.85554 47.43543 3.43094 -1.24415 -12.00437 -2.44625 -0.42641 43.29161 -106.12227 55.63385 12.54991 90.17991 2.95762 -2.41204 30.39695 104.19338 -55.33999 11.26604 -93.13734 0.08711 -0.02842 43.63091 -2.77448 -10.07813 -21.57587 -6.86354 -1.97837 -3.20842 47.50255 7.56727 5.92781 -26.83734 -6.96843 1.76612 3.11647
-0.00121 -9e-05 0.00178 -181.54597 -39.4638 -3.83544 47.48213 3.43692 -1.2723 -12.17672 -2.42691 -0.42939 45.67921 -106.37156 55.63334 14.16545 89.29436 2.48416 -2.292 34.97991 103.89156 -55.3588 12.21854 -93.84848 0.16722 -0.04067 43.64471 -2.82544 -10.15623 -21.58442 -6.8581 -1.96733 -3.20197 47.5147 7.5843 6.13398 -26.84731 -6.96711 1.7445 3.10525
-0.00124 -0.0001 0.00195 -181.54251 -39.47975 -3.81092 47.53856 3.44145 -1.30992 -12.38108 -2.40742 -0.43243 48.56541 -106.65738 55.63263 16.10575 88.35261 2.00913 -2.16775 40.56091 103.54739 -55.40003 13.31815 -93.82493 0.46701 -0.09708 43.65995 -2.88409 -10.24776 -21.59409 -6.85173 -1.95411 -3.19425 47.5293 7.60561 6.37607 -26.85954 -6.96599 1.71991 3.09205
-0.00127 -0.0001 0.00211 -181.53997 -39.49555 -3.78812 47.59204 3.44554 -1.34478 -12.57412 -2.38817 -0.43547 51.27892 -106.90343 55.63205 17.89469 87.44583 1.59705 -2.05969 45.75659 103.19631 -55.43035 14.28988 -94.09243 0.71271 -0.11784 43.67535 -2.93912 -10.33211 -21.60394 -6.84568 -1.94176 -3.18707 47.54364 7.62254 6.59149 -26.87072 -6.96465 1.69752 3.08023
-0.0013 -0.0001 0.00229 -181.53842 -39.50954 -3.76642 47.63941 3.45437 -1.37309 -12.75391 -2.36828 -0.43838 53.76935 -107.23699 55.6313 19.6898 86.48511 0.88538 -1.89379 50.68766 102.93505 -55.46331 15.4993 -94.54889 0.72538 -0.20078 43.68741 -2.9947 -10.42043 -21.61092 -6.84009 -1.92999 -3.18005 47.55434 7.64953 6.85029 -26.88198 -6.96382 1.6716 3.06641
